<svg width="200" height="24" viewBox="0 0 200 24" fill="none" xmlns="http://www.w3.org/2000/svg">
  <g transform="scale(0.102564) translate(0, 0)">
    <path d="M75.5 181.5L59.5 165C59.5 165 100.934 140.321 128 126.5C155.066 112.679 198.5 94 198.5 94L159.5 179.5L117 213.5L75.5 181.5Z" fill="#D10500"/>
    <path d="M117.006 20.7515L39.8744 40.2725C38.1671 40.7046 36.9433 42.2026 36.8603 43.9618L34.5225 93.5227C34.5076 93.8398 34.5304 94.1575 34.5905 94.4691L38.9166 116.886C39.443 119.614 42.5001 121.006 44.8905 119.591C57.1482 112.336 89.8899 93.1882 113.5 81.5C139.207 68.774 179.137 52.4908 189.158 48.4426C190.496 47.9023 192.004 48.479 192.665 49.7614C194.101 52.5494 198.334 51.2275 197.928 48.1176L197.316 43.426C197.125 41.9599 196.063 40.7568 194.632 40.3855L118.992 20.7575C118.341 20.5886 117.658 20.5865 117.006 20.7515Z" fill="#3E62DC"/>
    <path d="M189.728 135.349C175.683 177.331 128.699 205.589 119.029 211.038C117.916 211.665 116.633 211.681 115.505 211.083C105.561 205.807 56.7315 178.058 43.3363 135.349C30.5829 94.6861 34.1618 54.5659 35.4814 43.701C35.6908 41.9762 37.0184 40.6588 38.7336 40.3821C46.044 39.2027 65.703 35.9113 78.4407 32.6512C91.8965 29.2072 110.558 21.8127 115.972 19.6231C116.954 19.2258 118.046 19.2258 119.028 19.6238C124.434 21.8142 143.034 29.2075 156.118 32.6512C168.465 35.9006 186.816 39.1811 193.705 40.3704C195.361 40.6563 196.648 41.9074 196.895 43.5692C198.496 54.3218 203.191 95.1094 189.728 135.349Z" stroke="#16234F" stroke-width="20" fill="none"/>
  </g>
  <text x="30" y="17" font-family="system-ui, -apple-system, Segoe UI, sans-serif" font-size="14" font-weight="600" fill="#FAFAFA">First Responders Hub</text>
</svg>
